<mxfile host="app.diagrams.net" agent="Mozilla/5.0 (Windows NT 10.0; Win64; x64) AppleWebKit/537.36 (KHTML, like Gecko) Chrome/139.0.0.0 Safari/537.36" version="28.1.0">
  <diagram name="Page-1" id="NXg7ITTH3qQtrf2L64-2">
    <mxGraphModel dx="1113" dy="662" grid="1" gridSize="10" guides="1" tooltips="1" connect="1" arrows="1" fold="1" page="1" pageScale="1" pageWidth="850" pageHeight="1100" math="0" shadow="0">
      <root>
        <mxCell id="0" />
        <mxCell id="1" parent="0" />
        <mxCell id="jaXpP1DI4n3aj2Hu3zm9-12" style="edgeStyle=orthogonalEdgeStyle;rounded=0;orthogonalLoop=1;jettySize=auto;html=1;entryX=0;entryY=0.5;entryDx=0;entryDy=0;" edge="1" parent="1" source="jaXpP1DI4n3aj2Hu3zm9-1" target="jaXpP1DI4n3aj2Hu3zm9-10">
          <mxGeometry relative="1" as="geometry">
            <mxPoint x="120" y="160" as="sourcePoint" />
            <Array as="points">
              <mxPoint x="130" y="60" />
              <mxPoint x="130" y="100" />
            </Array>
          </mxGeometry>
        </mxCell>
        <mxCell id="jaXpP1DI4n3aj2Hu3zm9-13" style="edgeStyle=orthogonalEdgeStyle;rounded=0;orthogonalLoop=1;jettySize=auto;html=1;exitX=0.5;exitY=1;exitDx=0;exitDy=0;entryX=0.5;entryY=0;entryDx=0;entryDy=0;" edge="1" parent="1" source="jaXpP1DI4n3aj2Hu3zm9-10" target="jaXpP1DI4n3aj2Hu3zm9-8">
          <mxGeometry relative="1" as="geometry">
            <Array as="points">
              <mxPoint x="220" y="140" />
            </Array>
          </mxGeometry>
        </mxCell>
        <mxCell id="jaXpP1DI4n3aj2Hu3zm9-21" style="edgeStyle=orthogonalEdgeStyle;rounded=0;orthogonalLoop=1;jettySize=auto;html=1;exitX=0.75;exitY=0.1;exitDx=0;exitDy=0;exitPerimeter=0;" edge="1" parent="1" source="jaXpP1DI4n3aj2Hu3zm9-1" target="jaXpP1DI4n3aj2Hu3zm9-9">
          <mxGeometry relative="1" as="geometry" />
        </mxCell>
        <mxCell id="jaXpP1DI4n3aj2Hu3zm9-1" value="Actor" style="shape=umlActor;verticalLabelPosition=bottom;verticalAlign=top;html=1;outlineConnect=0;" vertex="1" parent="1">
          <mxGeometry x="80" y="30" width="30" height="60" as="geometry" />
        </mxCell>
        <mxCell id="jaXpP1DI4n3aj2Hu3zm9-15" style="edgeStyle=orthogonalEdgeStyle;rounded=0;orthogonalLoop=1;jettySize=auto;html=1;exitX=0.5;exitY=0.5;exitDx=0;exitDy=0;exitPerimeter=0;entryX=0.5;entryY=1;entryDx=0;entryDy=0;" edge="1" parent="1" source="jaXpP1DI4n3aj2Hu3zm9-2" target="jaXpP1DI4n3aj2Hu3zm9-8">
          <mxGeometry relative="1" as="geometry">
            <Array as="points">
              <mxPoint x="95" y="330" />
              <mxPoint x="220" y="330" />
            </Array>
          </mxGeometry>
        </mxCell>
        <mxCell id="jaXpP1DI4n3aj2Hu3zm9-44" style="edgeStyle=orthogonalEdgeStyle;rounded=0;orthogonalLoop=1;jettySize=auto;html=1;exitX=0.5;exitY=0.5;exitDx=0;exitDy=0;exitPerimeter=0;" edge="1" parent="1" source="jaXpP1DI4n3aj2Hu3zm9-2" target="jaXpP1DI4n3aj2Hu3zm9-41">
          <mxGeometry relative="1" as="geometry" />
        </mxCell>
        <mxCell id="jaXpP1DI4n3aj2Hu3zm9-2" value="Actor" style="shape=umlActor;verticalLabelPosition=bottom;verticalAlign=top;html=1;outlineConnect=0;" vertex="1" parent="1">
          <mxGeometry x="80" y="322" width="30" height="60" as="geometry" />
        </mxCell>
        <mxCell id="jaXpP1DI4n3aj2Hu3zm9-14" style="edgeStyle=orthogonalEdgeStyle;rounded=0;orthogonalLoop=1;jettySize=auto;html=1;exitX=0.5;exitY=0.5;exitDx=0;exitDy=0;exitPerimeter=0;" edge="1" parent="1" source="jaXpP1DI4n3aj2Hu3zm9-3" target="jaXpP1DI4n3aj2Hu3zm9-8">
          <mxGeometry relative="1" as="geometry">
            <Array as="points">
              <mxPoint x="150" y="210" />
              <mxPoint x="150" y="210" />
            </Array>
          </mxGeometry>
        </mxCell>
        <mxCell id="jaXpP1DI4n3aj2Hu3zm9-46" style="edgeStyle=orthogonalEdgeStyle;rounded=0;orthogonalLoop=1;jettySize=auto;html=1;exitX=1;exitY=0.3333333333333333;exitDx=0;exitDy=0;exitPerimeter=0;entryX=0;entryY=1;entryDx=0;entryDy=0;" edge="1" parent="1" source="jaXpP1DI4n3aj2Hu3zm9-3" target="jaXpP1DI4n3aj2Hu3zm9-27">
          <mxGeometry relative="1" as="geometry">
            <Array as="points">
              <mxPoint x="130" y="222" />
              <mxPoint x="130" y="280" />
            </Array>
          </mxGeometry>
        </mxCell>
        <mxCell id="jaXpP1DI4n3aj2Hu3zm9-3" value="Actor" style="shape=umlActor;verticalLabelPosition=bottom;verticalAlign=top;html=1;outlineConnect=0;" vertex="1" parent="1">
          <mxGeometry x="80" y="202" width="30" height="60" as="geometry" />
        </mxCell>
        <mxCell id="jaXpP1DI4n3aj2Hu3zm9-31" value="" style="edgeStyle=orthogonalEdgeStyle;rounded=0;orthogonalLoop=1;jettySize=auto;html=1;" edge="1" parent="1" target="jaXpP1DI4n3aj2Hu3zm9-30">
          <mxGeometry relative="1" as="geometry">
            <mxPoint x="110" y="350" as="sourcePoint" />
          </mxGeometry>
        </mxCell>
        <mxCell id="jaXpP1DI4n3aj2Hu3zm9-33" value="" style="edgeStyle=orthogonalEdgeStyle;rounded=0;orthogonalLoop=1;jettySize=auto;html=1;" edge="1" parent="1" source="jaXpP1DI4n3aj2Hu3zm9-2" target="jaXpP1DI4n3aj2Hu3zm9-30">
          <mxGeometry relative="1" as="geometry" />
        </mxCell>
        <mxCell id="jaXpP1DI4n3aj2Hu3zm9-34" value="" style="edgeStyle=orthogonalEdgeStyle;rounded=0;orthogonalLoop=1;jettySize=auto;html=1;" edge="1" parent="1" target="jaXpP1DI4n3aj2Hu3zm9-27">
          <mxGeometry relative="1" as="geometry">
            <mxPoint x="110" y="350" as="sourcePoint" />
          </mxGeometry>
        </mxCell>
        <mxCell id="jaXpP1DI4n3aj2Hu3zm9-40" style="edgeStyle=orthogonalEdgeStyle;rounded=0;orthogonalLoop=1;jettySize=auto;html=1;entryX=0;entryY=0;entryDx=0;entryDy=0;" edge="1" parent="1" target="jaXpP1DI4n3aj2Hu3zm9-38">
          <mxGeometry relative="1" as="geometry">
            <mxPoint x="120" y="350" as="sourcePoint" />
          </mxGeometry>
        </mxCell>
        <mxCell id="jaXpP1DI4n3aj2Hu3zm9-8" value="Login" style="shape=parallelogram;perimeter=parallelogramPerimeter;whiteSpace=wrap;html=1;fixedSize=1;" vertex="1" parent="1">
          <mxGeometry x="160" y="180" width="120" height="60" as="geometry" />
        </mxCell>
        <mxCell id="jaXpP1DI4n3aj2Hu3zm9-22" style="edgeStyle=orthogonalEdgeStyle;rounded=0;orthogonalLoop=1;jettySize=auto;html=1;exitX=1;exitY=0;exitDx=0;exitDy=0;entryX=0;entryY=0.5;entryDx=0;entryDy=0;" edge="1" parent="1" source="jaXpP1DI4n3aj2Hu3zm9-9" target="jaXpP1DI4n3aj2Hu3zm9-17">
          <mxGeometry relative="1" as="geometry" />
        </mxCell>
        <mxCell id="jaXpP1DI4n3aj2Hu3zm9-24" style="edgeStyle=orthogonalEdgeStyle;rounded=0;orthogonalLoop=1;jettySize=auto;html=1;exitX=1;exitY=0.5;exitDx=0;exitDy=0;entryX=0;entryY=0.5;entryDx=0;entryDy=0;" edge="1" parent="1" source="jaXpP1DI4n3aj2Hu3zm9-9" target="jaXpP1DI4n3aj2Hu3zm9-18">
          <mxGeometry relative="1" as="geometry" />
        </mxCell>
        <mxCell id="jaXpP1DI4n3aj2Hu3zm9-9" value="View Home" style="rhombus;whiteSpace=wrap;html=1;" vertex="1" parent="1">
          <mxGeometry x="385" y="95" width="80" height="80" as="geometry" />
        </mxCell>
        <mxCell id="jaXpP1DI4n3aj2Hu3zm9-10" value="Register" style="rhombus;whiteSpace=wrap;html=1;" vertex="1" parent="1">
          <mxGeometry x="180" y="60" width="80" height="80" as="geometry" />
        </mxCell>
        <mxCell id="jaXpP1DI4n3aj2Hu3zm9-23" style="edgeStyle=orthogonalEdgeStyle;rounded=0;orthogonalLoop=1;jettySize=auto;html=1;exitX=1;exitY=0.5;exitDx=0;exitDy=0;entryX=0;entryY=0.75;entryDx=0;entryDy=0;" edge="1" parent="1" source="jaXpP1DI4n3aj2Hu3zm9-17" target="jaXpP1DI4n3aj2Hu3zm9-20">
          <mxGeometry relative="1" as="geometry" />
        </mxCell>
        <mxCell id="jaXpP1DI4n3aj2Hu3zm9-17" value="Order" style="shape=step;perimeter=stepPerimeter;whiteSpace=wrap;html=1;fixedSize=1;" vertex="1" parent="1">
          <mxGeometry x="503" y="60" width="117" height="50" as="geometry" />
        </mxCell>
        <mxCell id="jaXpP1DI4n3aj2Hu3zm9-18" value="Contact" style="shape=hexagon;perimeter=hexagonPerimeter2;whiteSpace=wrap;html=1;fixedSize=1;" vertex="1" parent="1">
          <mxGeometry x="515" y="120" width="70" height="60" as="geometry" />
        </mxCell>
        <mxCell id="jaXpP1DI4n3aj2Hu3zm9-19" value="FeedBack" style="shape=callout;whiteSpace=wrap;html=1;perimeter=calloutPerimeter;" vertex="1" parent="1">
          <mxGeometry x="680" y="150" width="70" height="60" as="geometry" />
        </mxCell>
        <mxCell id="jaXpP1DI4n3aj2Hu3zm9-20" value="Payment" style="rounded=1;whiteSpace=wrap;html=1;" vertex="1" parent="1">
          <mxGeometry x="650" y="65" width="80" height="40" as="geometry" />
        </mxCell>
        <mxCell id="jaXpP1DI4n3aj2Hu3zm9-25" style="edgeStyle=orthogonalEdgeStyle;rounded=0;orthogonalLoop=1;jettySize=auto;html=1;exitX=0.5;exitY=1;exitDx=0;exitDy=0;entryX=0.621;entryY=0.055;entryDx=0;entryDy=0;entryPerimeter=0;" edge="1" parent="1" source="jaXpP1DI4n3aj2Hu3zm9-20" target="jaXpP1DI4n3aj2Hu3zm9-19">
          <mxGeometry relative="1" as="geometry" />
        </mxCell>
        <mxCell id="jaXpP1DI4n3aj2Hu3zm9-37" value="" style="edgeStyle=orthogonalEdgeStyle;rounded=0;orthogonalLoop=1;jettySize=auto;html=1;entryX=0.373;entryY=0.576;entryDx=0;entryDy=0;entryPerimeter=0;" edge="1" parent="1" source="jaXpP1DI4n3aj2Hu3zm9-2" target="jaXpP1DI4n3aj2Hu3zm9-35">
          <mxGeometry relative="1" as="geometry" />
        </mxCell>
        <mxCell id="jaXpP1DI4n3aj2Hu3zm9-27" value="Approve Order" style="ellipse;whiteSpace=wrap;html=1;aspect=fixed;" vertex="1" parent="1">
          <mxGeometry x="490" y="220" width="70" height="70" as="geometry" />
        </mxCell>
        <mxCell id="jaXpP1DI4n3aj2Hu3zm9-30" value="Manage Products" style="whiteSpace=wrap;html=1;" vertex="1" parent="1">
          <mxGeometry x="240" y="410" width="120" height="60" as="geometry" />
        </mxCell>
        <mxCell id="jaXpP1DI4n3aj2Hu3zm9-35" value="Repply Feedback" style="shape=callout;whiteSpace=wrap;html=1;perimeter=calloutPerimeter;size=30;position=0.5;" vertex="1" parent="1">
          <mxGeometry x="365" y="230" width="100" height="65" as="geometry" />
        </mxCell>
        <mxCell id="jaXpP1DI4n3aj2Hu3zm9-38" value="User Management" style="rounded=0;whiteSpace=wrap;html=1;" vertex="1" parent="1">
          <mxGeometry x="395" y="410" width="120" height="60" as="geometry" />
        </mxCell>
        <mxCell id="jaXpP1DI4n3aj2Hu3zm9-41" value="Manager&amp;nbsp;Supplier&amp;nbsp;" style="shape=hexagon;perimeter=hexagonPerimeter2;whiteSpace=wrap;html=1;fixedSize=1;" vertex="1" parent="1">
          <mxGeometry x="550" y="400" width="120" height="70" as="geometry" />
        </mxCell>
        <mxCell id="jaXpP1DI4n3aj2Hu3zm9-45" style="edgeStyle=orthogonalEdgeStyle;rounded=0;orthogonalLoop=1;jettySize=auto;html=1;exitX=1;exitY=0.3333333333333333;exitDx=0;exitDy=0;exitPerimeter=0;entryX=0;entryY=0;entryDx=0;entryDy=35;entryPerimeter=0;" edge="1" parent="1" source="jaXpP1DI4n3aj2Hu3zm9-3" target="jaXpP1DI4n3aj2Hu3zm9-35">
          <mxGeometry relative="1" as="geometry">
            <Array as="points">
              <mxPoint x="130" y="222" />
              <mxPoint x="130" y="300" />
              <mxPoint x="360" y="300" />
            </Array>
          </mxGeometry>
        </mxCell>
      </root>
    </mxGraphModel>
  </diagram>
</mxfile>
